<svg xmlns="http://www.w3.org/2000/svg" width="152" height="38" fill="none" viewBox="0 0 152 38"><path fill="#9F2241" d="M50.098 21.245c.182.286.474.43.874.43.51.035.875-.502.875-.502l8.635-10.917c.729-.716 1.42-.143 1.42-.143.693.716.183 1.324.183 1.324l-1.931 2.434v.036a.854.854 0 0 0-.255.644c0 .215.073.43.218.609l1.932 2.434 6.12-7.66-2.44-3.078-.438-.573c-.4-.573-1.275-.68-1.275-.68h-3.68c-.984 0-1.494.68-1.494.68l-10.31 12.993 1.566 1.969ZM49.66 14.587l-2.44-3.114c-.51-.787.218-1.36.218-1.36.911-.537 1.458.286 1.458.286l2.04 2.578 2.405-3.079-2.77-3.507c-.655-.931-1.675-.788-1.675-.788H45.58c-1.056 0-1.53.644-1.53.644l-2.951 3.651 6.12 7.732 2.442-3.043Z"/><path fill="#9F2241" d="M59.17 17.236s-.291-.43-.838-.43c-.583 0-.801.394-.801.394l-8.745 11.06c-.692.752-1.494.143-1.494.143-.692-.716-.109-1.36-.109-1.36l1.968-2.47v-.035a.854.854 0 0 0 .255-.645.962.962 0 0 0-.219-.608l-1.93-2.434-6.158 7.767 3.425 4.26 5.392.035 10.857-13.637-1.603-2.04ZM59.607 23.858l2.478 3.15c.583.787-.146 1.36-.146 1.36-.947.644-1.53-.322-1.53-.322l-2.077-2.613-2.405 3.078 3.498 4.367 5.356-.036 3.425-4.331-6.158-7.696-2.44 3.043ZM68.133 20.564a1.295 1.295 0 0 1-1.311-1.288c0-.716.583-1.289 1.311-1.289.729 0 1.312.573 1.312 1.289s-.583 1.288-1.312 1.288Zm0-3.722c-1.384 0-2.477 1.074-2.477 2.398s1.093 2.398 2.477 2.398c1.385 0 2.478-1.074 2.478-2.398s-1.093-2.398-2.478-2.398ZM54.616 1.88c.728 0 1.311.573 1.311 1.29 0 .715-.583 1.288-1.311 1.288a1.295 1.295 0 0 1-1.312-1.289c0-.716.62-1.288 1.312-1.288Zm0 3.723c1.384 0 2.477-1.074 2.477-2.398S56 .77 54.616.77c-1.385 0-2.478 1.074-2.478 2.398 0 1.325 1.093 2.434 2.478 2.434ZM39.75 19.24c0-.716.583-1.289 1.312-1.289.728 0 1.311.573 1.311 1.289s-.583 1.289-1.311 1.289a1.295 1.295 0 0 1-1.312-1.289Zm3.826 0c0-1.324-1.093-2.398-2.478-2.398-1.384 0-2.477 1.074-2.477 2.398s1.093 2.398 2.477 2.398c1.348.036 2.478-1.074 2.478-2.398ZM54.616 36.636a1.295 1.295 0 0 1-1.312-1.289c0-.716.583-1.288 1.312-1.288.728 0 1.311.572 1.311 1.288 0 .68-.583 1.289-1.311 1.289Zm0-3.723c-1.385 0-2.478 1.074-2.478 2.398 0 1.325 1.093 2.398 2.478 2.398 1.384 0 2.477-1.073 2.477-2.398 0-1.324-1.093-2.398-2.477-2.398Z"/><path fill="#BC955C" d="M28.638 3.17H0v18.755c0 10.309 14.282 13.387 14.282 13.387h.037S28.6 32.198 28.6 21.925l.037-18.756Zm-.729.68v18.075c0 2.183-.692 4.224-2.077 6.013-1.13 1.468-2.696 2.792-4.7 3.938-3.024 1.754-6.12 2.577-6.85 2.72-.692-.179-3.752-.966-6.813-2.72-2.004-1.146-3.57-2.47-4.7-3.938-1.384-1.79-2.077-3.83-2.077-6.013V3.85H27.91Z"/><path fill="#BC955C" d="M17.78 9.182V7.464h-1.785v1.611h-.693v-1.61h-1.858v1.61h-.692v-1.61H10.93v1.717l.911 1.504a.317.317 0 0 1 .037.179v7.874h.874v-2.827c0-.68.765-1.289 1.603-1.289.874 0 1.603.609 1.603 1.289v2.827h.911V10.9c0-.071.037-.107.073-.178l.838-1.54ZM11.113 18.918v-2.613l-.292.215a.284.284 0 0 1-.364-.036l-.4-.25v.036l-.037 1.002a.3.3 0 0 1-.146.25c.036.036.073.036.11.072.473.358.51.895.4 1.324h.729Z"/><path fill="#BC955C" d="M14.283 15.339c-.547 0-.911.394-.911.573v2.827h1.821v-2.827c.037-.215-.364-.573-.91-.573Z"/><path fill="#BC955C" d="M3.57 18.918a2.255 2.255 0 0 1-.218-.788c-.11-.572-.073-1.038-.073-1.073 0-.144.11-.251.255-.323l.765-.214-.874-.609a.324.324 0 0 1-.146-.286v-.967c0-.143.073-.25.182-.322l.328-.179v-.322l-.255-.107a.315.315 0 0 1-.255-.322V12.26c0-.179.146-.358.364-.358l1.093-.035a3.124 3.124 0 0 1 .037-1.003c.11-.43.364-.895.473-1.11l-.072-.393c-.037-.107.036-.179.072-.25a.334.334 0 0 1 .255-.108h.583c.073 0 .146.036.183.072l1.42.894h.693c.11 0 .182.036.255.108.073.071.11.143.11.25l-.074 1.11a.322.322 0 0 1-.109.25h.437c.11 0 .182.036.255.108l.182.215.146-.108.255-.5a.384.384 0 0 1 .328-.18h.947v-.179l-.91-1.539c-.037-.071-.037-.107-.037-.179V7.106c0-.179.146-.358.365-.358h7.615c.181 0 .364.143.364.358v2.148c0 .071-.037.107-.073.179l-.911 1.503v.215h.947c.146 0 .255.071.328.179l.255.5.146.108.182-.215a.334.334 0 0 1 .255-.107h.437a.322.322 0 0 1-.109-.25l-.073-1.11c0-.108.037-.18.11-.25a.334.334 0 0 1 .255-.108h.655l1.421-.895c.073-.036.11-.072.183-.072h.582c.11 0 .183.036.256.108.072.071.109.179.072.25l-.072.394c.109.215.364.68.473 1.11.073.322.073.716.037 1.002l1.093.036c.182 0 .364.143.364.358v1.145c0 .143-.073.25-.219.322l-.328.108v.322l.328.179c.11.071.183.179.183.322v.966c0 .108-.073.215-.146.287l-.875.608.765.215c.146.036.22.179.256.322 0 .036.036.501-.073 1.074-.073.322-.11.572-.219.787H26.306V5.566H2.259v13.352H3.57Z"/><path fill="#BC955C" d="M18.618 17.594c.037-.036.073-.036.11-.072-.073-.071-.146-.143-.146-.25v-1.038l-.364.286c-.11.072-.255.072-.401.036l-.292-.179v2.613h.693c-.073-.501-.073-1.002.4-1.396ZM23.318 26.077a.362.362 0 0 1-.364-.358v-2.255c0-.18-.11-.394-.255-.537a.853.853 0 0 0-.73-.25.908.908 0 0 0-.91.823v2.255a.322.322 0 0 1-.11.25.333.333 0 0 1-.254.108h-2.077a.362.362 0 0 1-.364-.358V23.5c0-.18-.11-.394-.256-.537a.853.853 0 0 0-.728-.25c-.219 0-.437.107-.62.214l1.713 8.626c2.404-1.038 5.283-2.792 6.85-5.44l-1.895-.036ZM17.707 31.733l-2.404-12.098h-1.931L10.93 31.733c0 .036 0 .036-.037.072 1.676.68 3.024 1.002 3.425 1.145.4-.108 1.749-.465 3.425-1.146 0-.035 0-.035-.037-.071ZM11.95 22.892c-.145-.144-.364-.215-.62-.215h-.036c-.364 0-.583.143-.692.286-.146.143-.255.358-.255.537v2.255a.362.362 0 0 1-.364.358H7.906a.334.334 0 0 1-.255-.107.322.322 0 0 1-.11-.251V23.5a.908.908 0 0 0-.91-.823h-.037c-.364 0-.583.143-.692.286-.146.143-.255.358-.255.537v2.255a.362.362 0 0 1-.364.358H3.46c1.53 2.649 4.372 4.367 6.813 5.44l1.676-8.662Z"/><path fill="#BC955C" d="M26.342 19.635h-10.31l.51 2.541c.218-.107.473-.179.728-.179.474 0 .91.143 1.239.465.291.287.474.68.474 1.003v1.897h1.384v-1.933a1.612 1.612 0 0 1 1.603-1.468c.474 0 .911.144 1.239.466.291.286.474.68.474 1.002v1.897h1.93a8.289 8.289 0 0 0 .766-3.508l-.037-2.183ZM4.992 25.397V23.5c0-.358.182-.716.473-1.003.328-.322.765-.465 1.239-.465.838.036 1.53.644 1.603 1.468V25.433h1.385v-1.898c0-.358.182-.715.473-1.002.328-.322.766-.465 1.24-.465.254 0 .51.072.728.179l.51-2.541H2.295v2.183c0 1.324.292 2.506.766 3.508h1.93ZM5.83 18.203h.583a.502.502 0 0 1 .072.214v.143c0 .108-.036.25-.036.358H4.445c-.291-.179-.437-.966-.437-1.575l.874-.25a.345.345 0 0 0 .255-.322v-.322c0-.108-.072-.215-.145-.287l-1.02-.716v-.572l.327-.18a.375.375 0 0 0 .183-.321v-.752c0-.143-.073-.25-.219-.322l-.328-.108v-.572h.91l.438.716v.966l-.291.93c-.037.108-.037.215.073.323a.333.333 0 0 0 .291.143h.255c.182 0 .328-.107.364-.286.037-.144.11-.609.183-.788.072-.143.327-.465.473-.68.11-.143.11-.322 0-.43l-1.166-1.36c-.036-.214-.073-.68 0-1.038.073-.393.365-.859.438-1.002.036-.071.072-.143.036-.215l-.036-.107h.072l1.421.895c.073.036.11.071.183.071h.437l-.037.394-.473.18c-.11.07-.219.178-.219.321v.358c0 .18.146.358.364.358h1.203l.328.322c.109.144.328.144.473.036 0 0 .547-.43.583-.465l.183-.394h.728v1.217s-1.275.43-1.384.465c-.073.036-.146.43-.11.501.037.108 0 .144.146.215 0 0 .364.287.474.322l.364-.358.474.072v1.181l-.474.322-1.494-1.002a.35.35 0 0 0-.473.072l-.219.286c-.11.143-.11.358.036.465l.838.788v.644l-.874.358c-.146.072-.219.179-.219.322v.143c0 .18.146.358.365.358h1.02c.182.215.11.501.036.716H7.323c-.072-.072-.109-.215-.145-.394v-.143c0-.215.036-.43.073-.573l.546-.68a.597.597 0 0 0 .073-.179l.036-.322c0-.107-.072-.214-.145-.322-.073-.107-.219-.071-.328-.036l-.875.358c-.109.036-.182.143-.218.25l-.073.359-.51.143a.345.345 0 0 0-.255.322v.143c-.037.18.145.323.328.323ZM22.808 18.202h-.583c-.036.072-.073.143-.073.215v.143c0 .108.037.25.037.358h2.003c.292-.179.438-.966.438-1.575l-.875-.25a.345.345 0 0 1-.255-.322v-.323c0-.107.073-.214.146-.286l.984-.68v-.573l-.328-.179a.374.374 0 0 1-.182-.322v-.752c0-.143.072-.25.218-.322l.328-.107v-.573h-.91l-.438.716v.967l.291.93c.037.108.037.215-.072.322a.333.333 0 0 1-.292.144h-.255c-.182 0-.328-.108-.364-.287-.037-.143-.11-.608-.182-.787-.073-.143-.328-.466-.474-.68-.11-.143-.11-.322 0-.43l1.202-1.36c.037-.215.073-.68 0-1.038-.073-.394-.364-.859-.437-1.002-.036-.072-.073-.143-.036-.215l.036-.107h-.073l-1.42.895c-.074.035-.11.071-.183.071h-.4l.036.501.473.18c.146.07.219.178.219.321v.358a.362.362 0 0 1-.364.358H19.82l-.328.322c-.109.143-.328.143-.473.036 0 0-.547-.43-.583-.465l-.182-.394h-.73v1.217s1.276.43 1.385.465c.073.036.146.43.11.501-.037.108 0 .144-.146.215 0 0-.364.287-.474.322l-.364-.358h-.51v1.182l.474.286 1.493-1.002a.35.35 0 0 1 .474.071l.219.287c.109.143.109.358-.037.465l-.838.752v.644l.875.358c.145.071.218.179.218.322v.143a.362.362 0 0 1-.364.358h-1.02c-.182.215-.11.501-.037.716h2.369c.072-.072.109-.215.145-.394v-.143c0-.215-.036-.43-.073-.573l-.546-.68c-.037-.071-.073-.143-.073-.179l-.036-.358c0-.107.072-.214.145-.322a.36.36 0 0 1 .328-.035l.875.357c.109.036.182.144.218.25l.073.359.51.143a.345.345 0 0 1 .255.322v.143c0 .215-.145.358-.364.358Z"/><path fill="#9F2241" d="M78.152 15.16c0-1.325.984-2.506 2.442-2.506.801 0 1.311.215 1.821.645l-.364.393c-.365-.322-.802-.572-1.494-.572-1.057 0-1.858.894-1.858 1.968v.036c0 1.145.729 2.004 1.93 2.004.584 0 1.057-.214 1.422-.465v-1.217h-1.494v-.465h2.004v1.897c-.437.394-1.13.716-1.968.716-1.457.036-2.44-1.074-2.44-2.434ZM88.828 15.16c0-1.11-.802-2.005-1.931-2.005-1.093 0-1.895.895-1.895 1.969v.036c0 1.074.802 1.968 1.931 1.968 1.093 0 1.895-.894 1.895-1.968Zm-4.409 0c0-1.325 1.02-2.506 2.478-2.506 1.494 0 2.478 1.146 2.478 2.47v.036c0 1.324-1.02 2.47-2.478 2.47-1.494 0-2.478-1.182-2.478-2.47ZM93.455 15.339h-1.53v1.682h1.64c.728 0 1.202-.322 1.202-.859-.037-.5-.474-.823-1.312-.823Zm1.02-1.324c0-.466-.4-.788-1.056-.788h-1.494v1.647h1.457c.62 0 1.093-.287 1.093-.86Zm-3.133-1.289h2.077c.582 0 .983.143 1.275.43.182.214.328.465.328.751v.036c0 .644-.401.93-.765 1.11.583.179 1.056.5 1.056 1.145v.036c0 .823-.692 1.288-1.785 1.288h-2.15l-.036-4.796ZM98.645 12.726h-.547v4.796h.547v-4.796ZM100.903 12.726h3.534v.501h-2.987v1.647h2.66v.465h-2.66v1.718h3.024v.465h-3.571v-4.796ZM108.337 15.196c.728 0 1.238-.358 1.238-1.002v-.036c0-.609-.473-.93-1.238-.93h-1.494v1.968h1.494Zm-2.077-2.47h2.113c.619 0 1.057.179 1.385.465.218.215.364.573.364.931v.036c0 .787-.583 1.253-1.312 1.396l1.494 1.968h-.692l-1.421-1.86h-1.348v1.86h-.547l-.036-4.796ZM112.125 12.726h.511l3.06 3.866v-3.866h.547v4.796h-.438l-3.133-3.937v3.937h-.547v-4.796ZM122.619 15.16c0-1.11-.802-2.004-1.931-2.004-1.13 0-1.895.895-1.895 1.968v.036c0 1.074.801 1.969 1.931 1.969 1.093 0 1.895-.895 1.895-1.969Zm-4.409 0c0-1.324 1.02-2.505 2.478-2.505 1.493 0 2.477 1.145 2.477 2.47v.035c0 1.325-1.02 2.47-2.477 2.47-1.494 0-2.478-1.181-2.478-2.47ZM128.266 13.227v3.794h1.166c1.239 0 2.041-.823 2.041-1.862v-.035c0-1.038-.766-1.897-2.041-1.897h-1.166Zm-.546-.501h1.712c1.53 0 2.587 1.038 2.587 2.362v.036c0 1.324-1.057 2.398-2.587 2.398h-1.712v-4.796ZM133.731 12.726h3.535v.501h-2.988v1.647h2.66v.465h-2.66v1.718h3.024v.465h-3.571v-4.796ZM141.674 12.726h.547v4.331h2.732v.465h-3.279v-4.796ZM149.726 15.768l-1.093-2.433-1.093 2.433h2.186Zm-1.384-3.042h.51l2.223 4.832h-.583l-.583-1.253h-2.66l-.583 1.253h-.583l2.259-4.832ZM78.934 23.356c0-1.396 1.056-2.505 2.55-2.505.91 0 1.457.322 1.931.751l-.692.752c-.364-.358-.765-.537-1.239-.537-.801 0-1.42.68-1.42 1.503v.036c0 .823.582 1.503 1.42 1.503.583 0 .91-.214 1.275-.572l.692.68c-.51.537-1.056.859-2.003.859-1.458 0-2.514-1.11-2.514-2.47ZM85.346 20.959H84.29v4.796h1.056v-4.796ZM86.621 23.716v-2.72h1.057v2.684c0 .788.4 1.181 1.056 1.181s1.057-.393 1.057-1.145v-2.72h1.056v2.684c0 1.468-.837 2.148-2.15 2.148-1.274 0-2.076-.716-2.076-2.112ZM94.017 24.788c.875 0 1.458-.573 1.458-1.432s-.583-1.432-1.457-1.432h-.838v2.9l.837-.036Zm-1.93-3.83h1.894c1.53 0 2.587 1.038 2.587 2.362v.036c0 1.324-1.057 2.398-2.587 2.398h-1.895v-4.796ZM100.066 23.75l-.656-1.539-.656 1.54h1.312Zm-1.093-2.827h.983l2.077 4.832h-1.129l-.438-1.074H98.39l-.438 1.074H96.86l2.114-4.832ZM104.729 24.788c.875 0 1.458-.573 1.458-1.432s-.583-1.432-1.458-1.432h-.838v2.9l.838-.036Zm-1.931-3.83h1.895c1.53 0 2.587 1.038 2.587 2.362v.036c0 1.324-1.057 2.398-2.587 2.398h-1.895v-4.796ZM112.344 24.788c.875 0 1.458-.573 1.458-1.432s-.583-1.432-1.458-1.432h-.838v2.9l.838-.036Zm-1.931-3.83h1.895c1.53 0 2.587 1.038 2.587 2.362v.036c0 1.324-1.057 2.398-2.587 2.398h-1.895v-4.796ZM115.951 20.959h3.68v.93h-2.623v.966h2.295v.931h-2.295v1.038h2.66v.93h-3.717v-4.796ZM122.765 20.959h1.166l1.275 2.004 1.275-2.005h1.166v4.797h-1.057v-3.15l-1.384 2.04h-.037l-1.348-2.004v3.114h-1.056v-4.796ZM130.962 19.384l.911.393-.911.824h-.801l.801-1.217Zm-2.04 1.575h3.68v.93h-2.624v.967h2.296v.93h-2.296v1.003h2.66v.93h-3.716v-4.76ZM135.043 23.32l-1.639-2.361h1.239l1.02 1.539 1.056-1.54h1.203l-1.64 2.327 1.713 2.47h-1.239l-1.13-1.647-1.093 1.647h-1.202l1.712-2.434ZM139.853 20.959h-1.057v4.796h1.057v-4.796ZM140.945 23.357c0-1.396 1.057-2.506 2.551-2.506.911 0 1.457.322 1.931.752l-.692.751c-.365-.357-.766-.537-1.239-.537-.802 0-1.421.68-1.421 1.504v.036c0 .823.583 1.503 1.421 1.503.583 0 .911-.215 1.275-.573l.692.68c-.51.537-1.056.86-2.004.86-1.457 0-2.514-1.11-2.514-2.47ZM149.982 23.357c0-.86-.62-1.504-1.494-1.504s-1.457.68-1.457 1.504v.035c0 .824.619 1.504 1.493 1.504.875-.036 1.458-.716 1.458-1.54Zm-4.044 0c0-1.396 1.093-2.506 2.586-2.506 1.494 0 2.587 1.11 2.587 2.47v.036c0 1.36-1.093 2.47-2.587 2.47-1.493 0-2.586-1.11-2.586-2.47Z"/></svg>